<svg xmlns="http://www.w3.org/2000/svg" viewBox="0 0 468.54 371.82"><defs><style>.a{fill:#f18823;}.b{fill:#273339;}</style></defs><polygon class="a" points="275.59 64.61 232.48 43.05 232.48 86.17 275.59 64.61"></polygon><polygon class="a" points="189.25 64.67 189.25 21.55 146.13 43.11 189.25 64.67"></polygon><polygon class="a" points="275.47 21.55 232.36 0 232.36 43.11 275.47 21.55"></polygon><polygon class="a" points="189.25 174.98 189.25 131.86 146.13 153.42 189.25 174.98"></polygon><polygon class="a" points="361.7 131.86 361.7 88.75 318.58 110.3 361.7 131.86"></polygon><polygon class="a" points="318.59 153.42 275.47 131.86 275.34 174.98 318.59 153.42"></polygon><polygon class="a" points="146.13 110.31 103.01 88.75 103.01 131.86 146.13 110.31"></polygon><polygon class="b" points="103.02 88.75 59.91 67.19 59.91 110.31 103.02 88.75"></polygon><polygon class="b" points="232.46 153.26 189.25 131.86 189.25 174.98 232.46 153.26"></polygon><polygon class="b" points="404.81 110.31 361.7 88.75 361.7 131.86 404.81 110.31"></polygon><polygon class="b" points="146.13 153.42 146.13 110.31 103.01 131.86 146.13 153.42"></polygon><polygon class="b" points="318.59 153.42 318.59 110.31 275.47 131.86 318.59 153.42"></polygon><polygon class="b" points="275.38 174.98 232.24 153.6 232.26 196.6 275.38 174.98"></polygon><path class="b" d="M404.81,110.31l-.43-.21L361.71,88.76l.53-.27L405.11,66.7v.49ZM363,88.76l41.18,20.59.29-41.67Z"></path><path class="b" d="M275.39,175l-.43-.21-43-21.24,43.94-21.85v.49Zm-42.13-21.45L274.8,174l.45-41.38Z"></path><path class="b" d="M318.58,153.45V110.3l43.31,21.48-.53.27Zm.6-42.19v41.22l41.37-20.7Z"></path><path class="b" d="M232.25,196.58l-43-21.59,43.06-21.72v.48ZM190.58,175l41.08,20.62,0-41.37Z"></path><polygon class="a" points="189.25 119.03 189.25 75.91 146.13 97.47 189.25 119.03"></polygon><polygon class="a" points="361.7 75.91 361.7 32.79 318.58 54.35 361.7 75.91"></polygon><polygon class="a" points="318.59 97.47 275.47 75.91 275.47 119.03 318.59 97.47"></polygon><polygon class="a" points="146.13 54.35 103.01 32.8 103.01 75.91 146.13 54.35"></polygon><polygon class="b" points="232.36 97.47 189.25 75.91 189.25 119.03 232.36 97.47"></polygon><polygon class="b" points="404.81 54.35 361.7 32.79 361.7 75.91 404.81 54.35"></polygon><polygon class="b" points="146.13 97.47 146.13 54.35 103.01 75.91 146.13 97.47"></polygon><polygon class="b" points="318.59 97.47 318.59 54.35 275.47 75.91 318.59 97.47"></polygon><polygon class="b" points="275.47 119.03 232.36 97.47 232.36 140.58 275.47 119.03"></polygon><path class="b" d="M318.58,97.48V54.35l43.21,21.52-.54.27Zm.6-42.16V96.51l41.27-20.64Z"></path><path class="b" d="M103.05,75.93l-.44-.22L59.23,54.35,103,32.8v.48ZM60.58,54.35,102.45,75l0-41.21Z"></path><path class="b" d="M96.93,338.76a9.49,9.49,0,0,1,7.71,3.59v-3.23h4.64v22.24h-4.64v-3.3a9.59,9.59,0,0,1-7.79,3.67c-5.77,0-10.42-4.72-10.42-11.59S91.08,338.76,96.93,338.76Zm1,4c-3.43,0-6.74,2.59-6.74,7.39s3.31,7.59,6.74,7.59,6.74-2.7,6.74-7.51S101.37,342.75,97.9,342.75Z"></path><path class="b" d="M141.6,338.76c5.45,0,9,2.7,10.26,7.39h-5a5.2,5.2,0,0,0-5.29-3.52c-3.71,0-6.17,2.75-6.17,7.59s2.46,7.63,6.17,7.63a5.08,5.08,0,0,0,5.29-3.51h5c-1.25,4.36-4.81,7.39-10.26,7.39-6.37,0-10.9-4.52-10.9-11.51S135.23,338.76,141.6,338.76Z"></path><path class="b" d="M182.32,338.76a9.47,9.47,0,0,1,7.71,3.59v-3.23h4.65v22.24H190v-3.3a9.58,9.58,0,0,1-7.79,3.67c-5.77,0-10.41-4.72-10.41-11.59S176.47,338.76,182.32,338.76Zm1,4c-3.43,0-6.74,2.59-6.74,7.39s3.31,7.59,6.74,7.59S190,355,190,350.22,186.76,342.75,183.29,342.75Z"></path><path class="b" d="M226.63,338.76a10.23,10.23,0,0,1,7.67,3.47V331.49H239v29.87H234.3V358a9.21,9.21,0,0,1-7.71,3.72c-5.85,0-10.49-4.72-10.49-11.59S220.74,338.76,226.63,338.76Zm.93,4c-3.43,0-6.74,2.59-6.74,7.39s3.31,7.59,6.74,7.59,6.74-2.7,6.74-7.51S231,342.75,227.56,342.75Z"></path><path class="b" d="M271.47,361.73c-6.38,0-11.1-4.52-11.1-11.51s4.52-11.46,11.1-11.46c6.34,0,10.82,4.4,10.82,10.94a14.32,14.32,0,0,1-.16,2.26h-17a6.12,6.12,0,0,0,6.34,5.89,5.39,5.39,0,0,0,5.25-3.1h5C280.43,358.62,276.92,361.73,271.47,361.73Zm-6.3-13.48h12.31c-.08-3.44-2.78-5.62-6.21-5.62A6.07,6.07,0,0,0,265.17,348.25Z"></path><path class="b" d="M335.24,348.93c0-4.07-2.22-6.18-5.57-6.18s-5.62,2.11-5.62,6.18v12.43h-4.56V348.93c0-4.07-2.22-6.18-5.57-6.18s-5.61,2.11-5.61,6.18v12.43h-4.6V339.12h4.6v2.55a8.48,8.48,0,0,1,6.58-2.91c3.52,0,6.46,1.49,8,4.4a8.74,8.74,0,0,1,7.76-4.4c5.2,0,9.16,3.27,9.16,9.49v13.11h-4.56Z"></path><path class="b" d="M377.81,339.12h4.76l-13.64,32.7h-4.77L368.68,361l-8.75-21.88h5.12l6.26,17Z"></path><path class="b" d="M27.48,297.77H0V234.05H26.29C39.62,234.05,47,241,47,250.48c0,7.76-4.65,12.6-10.86,14.61,7.21,1.28,12.32,7.94,12.32,15.43C48.47,290.65,40.71,297.77,27.48,297.77Zm-3-53.41H12.78v16H24.47c6,0,9.49-2.74,9.49-7.94S30.49,244.36,24.47,244.36Zm.91,25.84H12.78v17.16H25.65c6.21,0,9.86-3,9.86-8.4S31.59,270.2,25.38,270.2Z"></path><path class="b" d="M55.05,230.21H67.83v67.56H55.05Z"></path><path class="b" d="M99.24,298.59c-14.61,0-25.65-10.22-25.65-26.11s11.41-26.11,26-26.11,26,10.14,26,26.11S113.94,298.59,99.24,298.59Zm0-11.14c6.76,0,13.24-4.93,13.24-15s-6.3-15-13.06-15-12.87,4.84-12.87,15S92.39,287.45,99.24,287.45Z"></path><path class="b" d="M153.11,246.37c12.6,0,21.08,6.58,23.82,17.9H163.15c-1.46-4.3-4.84-7-10.13-7-7.13,0-11.87,5.38-11.87,15.24s4.74,15.16,11.87,15.16c5.29,0,8.58-2.38,10.13-6.94h13.78c-2.74,10.77-11.22,17.89-23.82,17.89-14.61,0-25-10.22-25-26.11S138.5,246.37,153.11,246.37Z"></path><path class="b" d="M182.69,230.21h12.78v38.44l17-21.45h16.61l-22.27,25.37,22.46,25.2H212.63l-17.16-21.55v21.55H182.69Z"></path><path class="b" d="M254.08,246.37c12.6,0,21.09,6.58,23.83,17.9H264.12c-1.46-4.3-4.83-7-10.13-7-7.12,0-11.86,5.38-11.86,15.24s4.74,15.16,11.86,15.16c5.3,0,8.58-2.38,10.13-6.94h13.79c-2.74,10.77-11.23,17.89-23.83,17.89-14.6,0-25-10.22-25-26.11S239.48,246.37,254.08,246.37Z"></path><path class="b" d="M283.67,230.21h12.78v23.28c3.28-4.29,8.94-7,15.7-7,11.41,0,19.72,7.67,19.72,21.64v29.67H319.09V269.83c0-8.12-4.48-12.5-11.23-12.5-6.94,0-11.41,4.38-11.41,12.5v27.94H283.67Z"></path><path class="b" d="M360.17,246.37c8.13,0,13.7,3.84,16.71,8V247.2h12.87v50.57H376.88v-7.4c-3,4.39-8.76,8.22-16.8,8.22-12.78,0-23-10.5-23-26.29S347.3,246.37,360.17,246.37Zm3.29,11.23c-6.85,0-13.33,5.11-13.33,14.7s6.48,15.06,13.33,15.06c7,0,13.42-5.29,13.42-14.88S370.49,257.6,363.46,257.6Z"></path><path class="b" d="M397.24,233.68a7.86,7.86,0,1,1,7.85,7.49A7.49,7.49,0,0,1,397.24,233.68Zm1.37,13.52h12.78v50.57H398.61Z"></path><path class="b" d="M455.76,269.83c0-8.12-4.47-12.5-11.23-12.5-6.93,0-11.41,4.38-11.41,12.5v27.94H420.34V247.2h12.78v6.29a18.91,18.91,0,0,1,15.25-7c11.78,0,20.17,7.67,20.17,21.64v29.67H455.76Z"></path><path class="b" d="M146.13,97.47l0-43.12.43.22,43.14,21.57-.54.27Zm.58-42.15,0,41.2,41.61-20.39Z"></path><path class="b" d="M232.37,140.59,189.23,119l.53-.27,42.66-21.35v.49ZM190.56,119l41.21,20.59,0-41.24Z"></path><path class="b" d="M275.54,64.65v-.48l-.08-42.62.44.21,43.37,21.35Zm.52-42.14.08,41.18,41.78-20.58Z"></path><path class="b" d="M232.47,86.17l-.42-.21L189.24,64.67l43.44-22ZM190.58,64.66l41.3,20.55.2-41.6Z"></path><path class="b" d="M275.47,119,231.89,97.66,275.53,75.9v.48ZM233.24,97.66l41.64,20.42.05-41.21Z"></path><path class="b" d="M103,131.88l-.44-.22L59.91,110.3l.53-.26L103,88.73v.48ZM61.25,110.3l41.19,20.61,0-41.21Z"></path><path class="b" d="M146.13,153.42l0-43.13.43.22,42.87,21.43-.54.27Zm.58-42.16,0,41.2,41.34-20.52Z"></path><path class="b" d="M232.67,43.41l-.44-.22-43-21.63L232.38,0V.48ZM190.58,21.56l41.48,20.88L231.79,1Z"></path><polygon class="b" points="232.36 43.11 189.25 21.55 189.25 64.67 232.36 43.11"></polygon><polygon class="b" points="275.54 64.62 275.47 21.55 232.13 42.99 275.54 64.62"></polygon></svg>