<svg width="133" height="30" viewBox="0 0 133 30" fill="none" xmlns="http://www.w3.org/2000/svg">
<path d="M0 16.9761V12.3387C0 9.9215 1.3383 8.62109 3.58045 8.62109C5.7547 8.62109 6.99409 9.9215 7.07167 12.2924H5.01573C4.9653 11.1098 4.51338 10.6094 3.57657 10.6094C2.63975 10.6094 2.12189 11.1253 2.12189 12.3484V16.9858C2.12189 18.2031 2.65721 18.7248 3.61148 18.7248C4.59872 18.7248 5.13404 18.2089 5.13404 17.0244V15.8902H3.51062V14.0739H7.14149V17.009C7.09107 19.376 5.78379 20.6919 3.5785 20.6919C1.37321 20.6919 0 19.376 0 16.9761Z" fill="white"/>
<path d="M13.6423 18.3774H10.8998L10.4304 20.5029H8.29688L11.1752 8.83594H13.3785L16.253 20.4874H14.1195L13.6423 18.3774ZM13.2253 16.4297L12.7559 14.2636C12.5891 13.4637 12.4049 12.1807 12.2866 11.3962H12.2361C12.1353 12.1787 11.951 13.4637 11.7842 14.2636L11.3168 16.4297H13.2253Z" fill="white"/>
<path d="M27.4989 8.82617V20.4873H25.476V16.8431C25.5264 15.477 25.5768 14.1379 25.6428 12.8259L25.5594 12.7931C25.2238 13.7592 24.8398 14.8103 24.4713 15.8595L23.6857 17.9271H21.6434L20.8578 15.8595C20.4893 14.8103 20.1208 13.7592 19.7697 12.7931L19.6863 12.8259C19.7523 14.1418 19.8027 15.475 19.8531 16.8431V20.4873H17.8438V8.82617H19.9191L21.8257 13.3921C22.0759 14.0085 22.4774 15.0751 22.6287 15.5581H22.6927C22.844 15.0751 23.261 14.0123 23.5131 13.3921L25.4081 8.82617H27.4989Z" fill="white"/>
<path d="M34.4431 18.3772H31.7005L31.2273 20.4872H29.0938L31.9721 8.82031H34.1754L37.046 20.4872H34.9125L34.4431 18.3772ZM34.0261 16.4295L33.5548 14.2596C33.388 13.4596 33.2037 12.1766 33.0854 11.3921H33.035C32.9341 12.1747 32.7498 13.4596 32.583 14.2596L32.1175 16.4295H34.0261Z" fill="white"/>
<path d="M78.2822 18.0937H74.886L74.2673 20.6269H72.8281L75.8364 8.95996H77.326L80.3382 20.6269H78.9009L78.2822 18.0937ZM77.9816 16.8261L77.0273 12.8766C76.843 12.1269 76.6762 11.1376 76.6084 10.6932H76.5579C76.492 11.1434 76.3232 12.1269 76.139 12.8766L75.1847 16.8261H77.9816Z" fill="white"/>
<path d="M81.5781 17.2605V12.3255C81.5781 10.0262 82.8835 8.74121 84.8405 8.74121C86.8479 8.74121 88.0854 9.97398 88.2037 12.2193H86.846C86.7451 10.7198 86.043 10.0184 84.8211 10.0184C83.7 10.0184 82.9475 10.7507 82.9475 12.3178V17.2605C82.9475 18.8063 83.733 19.5444 84.8715 19.5444C86.109 19.5444 86.7956 18.8275 86.9294 17.361H88.2871C88.1533 19.5773 86.9158 20.8274 84.8735 20.8274C82.899 20.8274 81.5781 19.5599 81.5781 17.2605Z" fill="white"/>
<path d="M94.4931 18.0937H91.0969L90.4782 20.6269H89.0391L92.0512 8.95996H93.5408L96.5529 20.6269H95.1138L94.4931 18.0937ZM94.1925 16.8261L93.2382 12.8766C93.054 12.1269 92.8872 11.1376 92.8193 10.6932H92.7688C92.7029 11.1434 92.5342 12.1269 92.3499 12.8766L91.3956 16.8261H94.1925Z" fill="white"/>
<path d="M98.332 8.95996H101.11C103.352 8.95996 104.657 10.2604 104.657 12.494V17.0947C104.657 19.3284 103.336 20.6288 101.127 20.6288H98.332V8.95996ZM101.133 19.3284C102.504 19.3284 103.292 18.5555 103.292 17.0445V12.5269C103.292 11.0275 102.516 10.2604 101.133 10.2604H99.7111V19.3284H101.133Z" fill="white"/>
<path d="M112.993 19.3439V20.6269H107.203V8.95996H112.808V10.2275H108.576V14.0785H112.508V15.3287H108.576V19.3458L112.993 19.3439Z" fill="white"/>
<path d="M124.059 8.95996V20.6269H122.701V15.2707C122.719 14.0031 122.752 12.8708 122.818 11.7366L122.75 11.7192C122.432 12.6022 121.997 13.6862 121.586 14.7857L120.364 17.9353H119.006L117.769 14.7857C117.368 13.6862 116.916 12.6022 116.605 11.7192L116.522 11.7366C116.59 12.8708 116.638 14.0031 116.638 15.2707V20.6211H115.281V8.95996H116.72L118.745 13.8428C119.03 14.5422 119.447 15.6919 119.631 16.2928H119.699C119.893 15.6938 120.318 14.5422 120.603 13.8428L122.628 8.95996H124.059Z" fill="white"/>
<path d="M128.654 16.6233L125.778 8.95996H127.217L128.705 13.1452C128.899 13.6959 129.139 14.3625 129.341 14.9615H129.366C129.56 14.3606 129.801 13.6785 130.002 13.1124L131.492 8.9619H132.931L130.028 16.6233V20.623H128.656L128.654 16.6233Z" fill="white"/>
<path d="M54.969 29.4359C52.0471 29.4359 49.1907 28.5727 46.7612 26.9555C44.3317 25.3382 42.4381 23.0396 41.3199 20.3503C40.2017 17.6609 39.9091 14.7016 40.4792 11.8466C41.0492 8.99161 42.4563 6.36913 44.5224 4.31079C46.5886 2.25245 49.221 0.850702 52.0868 0.282808C54.9526 -0.285087 57.9231 0.00637706 60.6227 1.12034C63.3222 2.23431 65.6295 4.12074 67.2529 6.54109C68.8763 8.96145 69.7427 11.807 69.7427 14.7179C69.7386 18.6201 68.1808 22.3613 65.4111 25.1206C62.6413 27.8798 58.886 29.4318 54.969 29.4359ZM54.969 2.90031C52.6225 2.90031 50.3286 3.59352 48.3775 4.89227C46.4265 6.19102 44.9058 8.03698 44.0078 10.1967C43.1098 12.3565 42.8749 14.733 43.3326 17.0258C43.7904 19.3185 44.9204 21.4246 46.5797 23.0776C48.2389 24.7306 50.3529 25.8563 52.6544 26.3123C54.9559 26.7684 57.3414 26.5343 59.5093 25.6397C61.6772 24.7451 63.5302 23.2302 64.8339 21.2865C66.1375 19.3428 66.8334 17.0576 66.8334 14.7199C66.8287 11.5869 65.5771 8.58362 63.353 6.36863C61.1289 4.15364 58.1139 2.90775 54.969 2.90418V2.90031Z" fill="white"/>
<circle cx="55" cy="15" r="15" fill="white"/>
<path d="M50.6242 16.8824H47.9922V11.1687L50.6242 10.6973V16.8824Z" fill="black"/>
<path d="M54.3929 16.8823H51.7609V9.92041L54.3929 9.42383V16.8823Z" fill="black"/>
<path d="M58.1752 8.78613H55.5432V16.8822H58.1752V8.78613Z" fill="black"/>
<path d="M61.9523 16.8818H59.3203V9.91406L61.9523 10.3855V16.8818Z" fill="black"/>
<path d="M61.9496 18.0293H55.5432V20.6514H61.9496V18.0293Z" fill="black"/>
</svg>
